<svg width="568" height="477" viewBox="0 0 568 477" fill="none" xmlns="http://www.w3.org/2000/svg">
<g clip-path="url(#clip0_144_407)">
<path fill-rule="evenodd" clip-rule="evenodd" d="M239.939 -168.241C239.939 -168.241 278.924 72.7353 428.883 42.0796C486.09 28.4908 433.14 227.75 573.167 209.433C573.678 211.177 570.185 180.053 569.701 178.961C501.827 193.693 488.2 85.5948 484.299 54.8267C482.284 51.0192 485.811 5.48441 415.407 15.0054C315.56 24.6192 298.88 -147.442 298.88 -147.442L239.939 -168.241Z" fill="#DC3022" stroke="#010202" stroke-width="13" stroke-linecap="square"/>
<path fill-rule="evenodd" clip-rule="evenodd" d="M147.024 -131.566C147.024 -131.566 196.728 137.072 374.478 98.9914C441.471 82.4903 386.926 284.85 525.743 262.908C563.183 256.791 595.515 294.258 595.388 297.325C595.246 300.743 597.445 257.758 597.445 257.758C597.837 257.914 572.81 231.971 528.569 241.321C448.846 258.171 446.426 147.252 440.424 112.241C437.78 107.801 440.169 56.7685 357.628 68.6909C239.55 81.3438 216.756 -109.21 216.756 -109.21L147.024 -131.566Z" fill="#4A9F5B" stroke="#010202" stroke-width="13" stroke-linecap="square"/>
<path fill-rule="evenodd" clip-rule="evenodd" d="M76.7926 -59.0876C76.7926 -59.0876 151.032 205.79 323.795 158.162C389.229 137.888 335.609 351.877 518.304 321.793C565.606 314.414 591.253 368.815 591.704 369.419C611.823 362.61 584.481 318.865 584.481 318.865C584.481 318.865 575.063 295.293 519.639 295.579C390.571 301.596 400.979 203.542 391.2 168.036C388.085 163.685 385.183 112.027 303.912 128.535C187.934 147.588 147.164 -41.1131 147.164 -41.1131L76.7926 -59.0876Z" fill="#EDBB41" stroke="#010202" stroke-width="13" stroke-linecap="square"/>
<path fill-rule="evenodd" clip-rule="evenodd" d="M9.51955 -11.2646C9.51955 -11.2646 117.259 277.12 275.641 221.062C335.624 197.526 293.795 425.525 471.619 385.558C545.693 367.043 607.096 466.747 607.57 469.956C608.104 473.572 604.206 426.648 604.206 426.648C604.206 426.648 578.242 349.77 499.346 358.476C360.669 375.765 351.565 262.722 339.748 227.76C336.486 223.534 329.813 171.742 254.707 192.248C147.485 216.919 54.4251 -11.9251 54.4251 -11.9251L9.51955 -11.2646Z" fill="#316EE7" stroke="#010202" stroke-width="13" stroke-linecap="square"/>
</g>
<defs>
<clipPath id="clip0_144_407">
<rect width="615" height="656" fill="white" transform="translate(615 477) rotate(180)"/>
</clipPath>
</defs>
</svg>
