<svg width="567" height="477" viewBox="0 0 567 477" fill="none" xmlns="http://www.w3.org/2000/svg">
<g clip-path="url(#clip0_144_395)">
<path fill-rule="evenodd" clip-rule="evenodd" d="M327.061 645.241C327.061 645.241 288.076 404.265 138.117 434.92C80.91 448.509 133.86 249.25 -6.16684 267.567C-6.67762 265.823 -3.18526 296.947 -2.70064 298.039C65.1728 283.307 78.7995 391.405 82.7006 422.173C84.7156 425.981 81.1892 471.516 151.593 461.995C251.44 452.381 268.119 624.442 268.119 624.442L327.061 645.241Z" fill="#316EE7" stroke="#010202" stroke-width="13" stroke-linecap="square"/>
<path fill-rule="evenodd" clip-rule="evenodd" d="M419.976 608.566C419.976 608.566 370.272 339.928 192.522 378.009C125.529 394.51 180.074 192.15 41.2567 214.092C3.81713 220.209 -28.5153 182.742 -28.3878 179.675C-28.2459 176.257 -30.4446 219.242 -30.4446 219.242C-30.837 219.086 -5.80974 245.029 38.4314 235.679C118.154 218.829 120.574 329.748 126.576 364.759C129.22 369.199 126.831 420.232 209.372 408.309C327.45 395.656 350.244 586.21 350.244 586.21L419.976 608.566Z" fill="#EDBB41" stroke="#010202" stroke-width="13" stroke-linecap="square"/>
<path fill-rule="evenodd" clip-rule="evenodd" d="M490.207 536.088C490.207 536.088 415.968 271.21 243.205 318.838C177.771 339.112 231.391 125.123 48.6959 155.207C1.39407 162.586 -24.2532 108.185 -24.7045 107.581C-44.8228 114.39 -17.481 158.135 -17.481 158.135C-17.481 158.135 -8.06343 181.707 47.3611 181.421C176.429 175.404 166.021 273.458 175.8 308.964C178.915 313.315 181.817 364.973 263.088 348.466C379.066 329.412 419.836 518.113 419.836 518.113L490.207 536.088Z" fill="#4A9F5B" stroke="#010202" stroke-width="13" stroke-linecap="square"/>
<path fill-rule="evenodd" clip-rule="evenodd" d="M557.48 488.265C557.48 488.265 449.741 199.88 291.359 255.938C231.376 279.474 273.205 51.475 95.381 91.4422C21.307 109.957 -40.0957 10.2533 -40.5699 7.04351C-41.1035 3.4282 -37.2057 50.3521 -37.2057 50.3521C-37.2057 50.3521 -11.2419 127.23 67.6541 118.524C206.331 101.235 215.435 214.278 227.252 249.24C230.514 253.466 237.187 305.258 312.293 284.752C419.515 260.081 512.575 488.925 512.575 488.925L557.48 488.265Z" fill="#DC3022" stroke="#010202" stroke-width="13" stroke-linecap="square"/>
</g>
<defs>
<clipPath id="clip0_144_395">
<rect width="615" height="656" fill="white" transform="translate(-48)"/>
</clipPath>
</defs>
</svg>
